<svg width="1440" height="1306" viewBox="0 0 1440 1306" fill="none" xmlns="http://www.w3.org/2000/svg">
<g clip-path="url(#clip0_33_181)">
<rect width="1440" height="1306" fill="white"/>
<rect width="1440" height="1306" fill="#FFD98D"/>
<path d="M253 -13V1322.5" stroke="#FFFEE9" stroke-opacity="0.4" stroke-width="2"/>
<path d="M163 -13V1322.5" stroke="#FFFEE9" stroke-opacity="0.4" stroke-width="2"/>
<path d="M73 -13V1322.5" stroke="#FFFEE9" stroke-opacity="0.4" stroke-width="2"/>
<path d="M343 -13V1322.5" stroke="#FFFEE9" stroke-opacity="0.4" stroke-width="2"/>
<path d="M433 -13V1322.5" stroke="#FFFEE9" stroke-opacity="0.4" stroke-width="2"/>
<path d="M223 -16V1319.5" stroke="#FFFEE9" stroke-opacity="0.4" stroke-width="2"/>
<path d="M133 -16V1319.5" stroke="#FFFEE9" stroke-opacity="0.4" stroke-width="2"/>
<path d="M43 -16V1319.5" stroke="#FFFEE9" stroke-opacity="0.4" stroke-width="2"/>
<path d="M313 -16V1319.5" stroke="#FFFEE9" stroke-opacity="0.4" stroke-width="2"/>
<path d="M403 -16V1319.5" stroke="#FFFEE9" stroke-opacity="0.4" stroke-width="2"/>
<path d="M193 -16V1319.5" stroke="#FFFEE9" stroke-opacity="0.4" stroke-width="2"/>
<path d="M103 -16V1319.5" stroke="#FFFEE9" stroke-opacity="0.4" stroke-width="2"/>
<path d="M13 -16V1319.5" stroke="#FFFEE9" stroke-opacity="0.4" stroke-width="2"/>
<path d="M283 -16V1319.5" stroke="#FFFEE9" stroke-opacity="0.4" stroke-width="2"/>
<path d="M373 -16V1319.5" stroke="#FFFEE9" stroke-opacity="0.4" stroke-width="2"/>
<path d="M1246 -13V1322.5" stroke="#FFFEE9" stroke-opacity="0.4" stroke-width="2"/>
<path d="M1156 -13V1322.5" stroke="#FFFEE9" stroke-opacity="0.4" stroke-width="2"/>
<path d="M1066 -13V1322.5" stroke="#FFFEE9" stroke-opacity="0.4" stroke-width="2"/>
<path d="M1336 -13V1322.5" stroke="#FFFEE9" stroke-opacity="0.4" stroke-width="2"/>
<path d="M1426 -13V1322.5" stroke="#FFFEE9" stroke-opacity="0.4" stroke-width="2"/>
<path d="M1216 -16V1319.5" stroke="#FFFEE9" stroke-opacity="0.4" stroke-width="2"/>
<path d="M1126 -16V1319.5" stroke="#FFFEE9" stroke-opacity="0.4" stroke-width="2"/>
<path d="M1036 -16V1319.5" stroke="#FFFEE9" stroke-opacity="0.4" stroke-width="2"/>
<path d="M1306 -16V1319.5" stroke="#FFFEE9" stroke-opacity="0.4" stroke-width="2"/>
<path d="M1396 -16V1319.5" stroke="#FFFEE9" stroke-opacity="0.4" stroke-width="2"/>
<path d="M1186 -16V1319.5" stroke="#FFFEE9" stroke-opacity="0.4" stroke-width="2"/>
<path d="M1096 -16V1319.5" stroke="#FFFEE9" stroke-opacity="0.4" stroke-width="2"/>
<path d="M1006 -16V1319.5" stroke="#FFFEE9" stroke-opacity="0.4" stroke-width="2"/>
<path d="M1276 -16V1319.5" stroke="#FFFEE9" stroke-opacity="0.4" stroke-width="2"/>
<path d="M1366 -16V1319.5" stroke="#FFFEE9" stroke-opacity="0.4" stroke-width="2"/>
</g>
<defs>
<clipPath id="clip0_33_181">
<rect width="1440" height="1306" fill="white"/>
</clipPath>
</defs>
</svg>
